<svg xmlns="http://www.w3.org/2000/svg" width="16" height="16" viewBox="0 0 16 16" fill="none" class="">
    <path d="M3.94721 8.10557C3.45324 7.85858 2.85256 8.05881 2.60557 8.55279C2.35858 9.04676 2.55881 9.64744 3.05279 9.89443L3.94721 8.10557ZM14.2682 3.64018C14.6218 3.21591 14.5645 2.58534 14.1402 2.23178C13.7159 1.87821 13.0853 1.93554 12.7318 2.35982L14.2682 3.64018ZM3.05279 9.89443C3.03895 9.88751 3.08711 9.91158 3.20353 10.0267C3.31096 10.1328 3.43873 10.2783 3.58906 10.4644C3.9012 10.8507 4.21622 11.2908 4.59999 11.7939C4.96011 12.2661 5.36876 12.7766 5.79031 13.1734C6.16703 13.5281 6.7644 14 7.5 14V12C7.59575 12 7.4982 12.0344 7.16119 11.7172C6.86902 11.4421 6.54515 11.0464 6.19024 10.5811C5.85897 10.1467 5.47644 9.61802 5.14478 9.2075C4.9732 8.99513 4.79252 8.78514 4.60946 8.6042C4.4354 8.43217 4.21105 8.23749 3.94721 8.10557L3.05279 9.89443ZM7.5 14C8.09615 14 8.52338 13.6174 8.74647 13.3834C9.00835 13.1087 9.25366 12.7519 9.48045 12.3786C9.93721 11.6268 10.434 10.6122 10.9427 9.56032C11.9959 7.38215 13.1165 5.02223 14.2682 3.64018L12.7318 2.35982C11.3835 3.97777 10.1439 6.61785 9.14211 8.68968C8.62319 9.76283 8.16876 10.6857 7.77117 11.3402C7.57079 11.67 7.41315 11.8835 7.2989 12.0033C7.14586 12.1639 7.22378 12 7.5 12V14Z" fill="#00A894"></path>
</svg>