<svg width="32" height="48" fill="none" xmlns="http://www.w3.org/2000/svg"><path d="M3 10.5L7 5l4.5-2.5 5.5-1 3.5 2 5 5L28 16l-2.5 8.5L21 29h-9l-7-3.5-2.5-3L1 17l2-6.5z" fill="#fff"/><path d="M7.5 44l-4 .5 4-16.5 7.5 1.5 6.5-1.5 9 16-6-1-4 2.5-5-8.5-4 9.5-4-2.5z" fill="#fff"/><path d="M31.75 43.559c-1.53-2.16-2.43-4.697-3.601-7.14-1.171-2.442-2.702-4.603-3.963-6.951-.09-.188-.63-.94-.54-1.034 0-.094.45-.282.54-.376.27-.281.63-.563.99-.845.721-.752 1.352-1.503 1.892-2.443 1.08-1.878 1.891-4.04 2.251-6.2.63-4.04-.45-8.36-2.881-11.649a13.957 13.957 0 0 0-1.891-2.16c-.721-.658-1.712-1.128-2.432-1.88-.54-.563-.63-1.314-1.44-1.878-.721-.47-1.442-.752-2.252-.846-3.512-.657-7.385.846-10.356 2.63C4.645 4.856 2.123 7.674.862 11.619c-1.44 4.322-1.17 9.395 1.531 13.152.63.846 1.261 1.597 2.071 2.255.27.282 1.171.658 1.351.94.27.47 0 1.315-.18 1.972-.63 2.818-1.62 5.637-2.341 8.455-.45 1.503-.63 3.1-1.08 4.603-.271.846-.721 1.597-.181 2.537 1.26 2.067 3.782-.47 5.403-.282 2.071.282 2.702 3.946 5.133 2.349 1.171-.752 1.441-2.161 1.801-3.57.45-1.597.9-3.194 1.261-4.885.9 2.066 5.043 11.836 7.475 7.515.18-.376.99-1.973 1.44-2.16.27-.095 1.621.563 1.982.657.54.094.99.188 1.53.188.811.094 1.802.47 2.612.282.81.188 1.801-.94 1.08-2.067zm-14.048-12.87c.72-.094 1.351-.282 2.072-.47 1.08-.282.99-.376 1.53.658.63 1.22 1.441 2.348 2.162 3.57 1.53 2.442 2.611 5.072 3.962 7.703-1.53.376-2.521-1.315-3.962-1.127-1.441.187-1.26 1.784-2.071 2.724-1.441-2.255-2.612-4.697-3.693-7.14-.27-.657-.9-1.69-.9-2.254-.18-1.034.54-2.63.9-3.664zm7.925-10.71c-1.801 5.355-6.394 8.08-11.707 7.61-4.052-.376-9.185-2.255-10.626-6.67-1.351-4.04.45-10.146 3.242-13.058 1.62-1.691 3.962-2.819 6.123-3.57.63-.188 2.792-1.127 3.422-.752.27.188.36.846.72 1.034.451.282 1.172.282 1.712.47 5.763 1.878 9.095 9.018 7.114 14.936zM6.896 36.138c.63-2.161 1.35-4.322 1.71-6.482 1.892.657 3.783 1.127 5.764 1.22-1.26 4.51-2.07 9.207-3.512 13.716-.9-.845-1.71-1.972-2.881-2.254-.991-.282-1.892.188-2.882.47.45-2.35 1.17-4.51 1.8-6.67z" fill="#FFC748"/><path d="M21.755 12.182c-1.17-.188-2.792.282-3.782-.094-.54-.188-1.711-2.066-2.252-2.724-.63-.846-1.17-3.382-2.791-1.879-.72.658-1.081 2.255-1.441 3.194-.36.846-.36.94-1.171.94-1.17 0-3.332 0-3.422 1.69-.09.94.99 1.785 1.71 2.255.721.47 1.082.282.901 1.127-.27 1.316-2.881 4.322-.54 5.261.9.376 2.252-.188 3.062-.563.54-.188.99-.658 1.53-.752.721-.188 1.082.188 1.802.564 1.17.563 5.133 3.194 5.403.375.09-.751-.9-1.878-1.17-2.63-.18-.376-.36-.845-.36-1.221 0-.564.45-.752.99-1.128.99-.563 1.891-.939 2.341-2.16.18-.846.18-2.067-.81-2.255zm-5.313 5.355c-.18.376 0 .845.09 1.221-.63-.376-1.351-1.127-2.072-1.221-1.08-.188-2.25.658-3.151 1.127.36-.563.72-.94 1.08-1.409.27-.376.54-.376.63-.845.36-1.41-.72-1.41-1.44-1.973 1.44.094 1.89-1.691 2.341-2.819.72.846.9 1.41 1.35 2.35.451.938 1.352.938 2.342.938-.72.47-1.71 1.504-1.17 2.63z" fill="#FFC748"/></svg>