<svg width="84" height="154" viewBox="0 0 84 154" fill="none" xmlns="http://www.w3.org/2000/svg">
<path d="M37.7495 121.685C37.9705 122.096 38.0533 122.507 38.1638 122.972C38.2466 123.301 38.4399 123.52 38.6333 123.794C39.0475 124.396 39.1856 125.136 39.4894 125.793C39.7932 126.478 40.0693 127.108 40.5388 127.683C41.0083 128.258 41.5054 128.806 41.892 129.435C42.0854 129.737 42.2511 130.038 42.4444 130.312C42.6929 130.668 43.0796 130.914 42.8862 131.38C42.7205 131.791 42.3063 132.01 42.1958 132.448C42.113 132.749 42.1682 133.05 42.1682 133.352C42.1682 133.79 42.0301 134.201 41.9749 134.639C41.892 135.433 41.9473 136.227 41.8092 137.021C41.754 137.35 41.6987 137.733 41.5054 138.035C41.3397 138.309 40.7045 138.911 40.3455 138.555C40.1246 138.309 40.2626 137.514 40.2903 137.186C40.3179 136.665 40.3731 136.172 40.3455 135.652C40.3179 134.338 40.1798 132.859 39.5998 131.654C38.9647 130.312 37.6943 129.353 37.0591 128.039C36.7277 127.354 36.562 126.642 36.2306 125.957C36.0649 125.629 35.844 125.355 35.6783 125.054C35.4573 124.67 35.3469 124.232 35.1812 123.821C34.546 122.315 33.3861 121.055 33.3032 119.357C34.6564 119.713 36.0373 120.042 37.4457 120.097C37.4734 120.179 37.501 120.261 37.501 120.343C37.5562 120.59 37.5562 120.809 37.5838 121.055C37.5838 121.302 37.6391 121.466 37.7495 121.685Z" fill="#00ADD3"/>
<path d="M47.1944 120.809C47.4153 121.22 47.4981 121.631 47.6086 122.096C47.6915 122.425 47.8848 122.644 48.0781 122.918C48.4923 123.52 48.6304 124.26 48.9342 124.917C49.238 125.602 49.5142 126.232 49.9836 126.807C50.4531 127.382 50.9502 127.93 51.3369 128.56C51.5302 128.861 51.6959 129.162 51.8892 129.436C52.1378 129.792 52.5244 130.038 52.3311 130.504C52.1654 130.915 51.7511 131.134 51.6407 131.572C51.5578 131.873 51.613 132.174 51.613 132.476C51.613 132.914 51.475 133.325 51.4197 133.763C51.3369 134.557 51.3921 135.351 51.254 136.145C51.1988 136.474 51.1436 136.857 50.9502 137.159C50.7845 137.433 50.1493 138.035 49.7903 137.679C49.5694 137.433 49.7075 136.638 49.7351 136.31C49.7627 135.789 49.8179 135.296 49.7903 134.776C49.7627 133.462 49.6246 131.983 49.0447 130.778C48.4095 129.436 47.1391 128.477 46.5039 127.163C46.1725 126.478 46.0068 125.766 45.6754 125.081C45.5097 124.753 45.2888 124.479 45.1231 124.178C44.9022 123.794 44.7917 123.356 44.626 122.945C43.9908 121.439 42.8309 120.179 42.748 118.481C44.1013 118.837 45.4821 119.166 46.8906 119.221C46.9182 119.303 46.9458 119.385 46.9458 119.467C47.001 119.714 47.001 119.933 47.0287 120.179C47.0287 120.453 47.0839 120.618 47.1944 120.809Z" fill="#00ADD3"/>
<path d="M72.4362 114.592C72.2152 115.112 71.6905 115.523 71.221 115.852C69.3983 117.084 66.9957 117.714 64.8139 118.152C63.4607 118.426 62.0799 118.618 60.699 118.809C59.2353 119.001 57.7716 119.193 56.2803 119.22C53.3806 119.248 50.4808 118.892 47.6087 119.083C45.0955 119.248 42.6929 120.097 40.2074 120.507C39.4341 120.644 38.6608 120.726 37.8876 120.726C37.8599 120.672 37.8599 120.59 37.8323 120.535C37.8047 120.398 37.5838 120.453 37.6114 120.59C37.6114 120.644 37.639 120.672 37.639 120.726C37.1419 120.726 36.6172 120.672 36.1201 120.59C34.7393 120.343 33.386 119.877 32.0328 119.576C29.354 119.001 26.5647 118.919 23.8306 119.165C22.4222 119.275 21.0413 119.494 19.6605 119.768C18.3901 120.014 17.1197 120.343 15.8218 120.261C15.4627 120.233 15.1037 120.179 14.7723 120.042C14.5514 119.96 14.3581 119.823 14.1371 119.768C13.999 119.741 13.8333 119.713 13.6953 119.713C13.0325 119.631 12.8391 119.22 12.9496 118.618C13.0325 118.18 13.1153 117.769 13.1429 117.331C13.1982 116.619 13.6676 116.071 13.9714 115.441C14.2476 114.811 14.4409 114.209 14.579 113.551C14.5238 113.497 14.4685 113.442 14.4961 113.332C14.579 113.031 14.6618 112.73 14.7723 112.428C14.7723 112.374 14.7999 112.319 14.7999 112.264C14.8552 111.771 14.938 111.278 15.0761 110.813C15.0761 111.032 15.0761 111.251 15.0761 111.47C15.0761 111.497 15.0761 111.525 15.0761 111.552C15.159 111.333 15.2418 111.114 15.297 110.895C15.3247 110.347 15.4075 109.854 15.6561 109.334C16.6226 107.362 18.3073 105.609 18.6111 103.391C18.7768 102.296 18.3349 101.447 17.8654 100.461C17.3131 99.3106 16.7883 98.133 16.3465 96.9554C15.877 95.6956 15.4904 94.518 15.5456 93.1487C15.6008 91.8068 15.9046 90.4923 16.2912 89.2051C16.6503 87.9454 17.175 86.7678 17.4788 85.508C17.7825 84.1935 18.0035 82.879 18.2796 81.5644C18.5282 80.4416 18.7768 79.3462 18.5006 78.2233C18.3625 77.6756 18.1692 77.1553 18.0311 76.635C17.9759 76.3611 17.9482 76.0872 17.8654 75.8134C17.7825 75.5121 17.5892 75.2383 17.5064 74.9096C17.4235 74.6358 17.3959 74.3619 17.3683 74.0881C17.3131 73.7868 17.2026 73.5403 17.0921 73.2391C16.8712 72.5818 16.7883 71.8698 16.7607 71.1851C16.7055 69.9528 16.7331 68.693 16.816 67.4606C16.8988 66.2009 17.1197 64.9137 17.6168 63.7361C18.1139 62.5585 18.7768 61.5179 19.191 60.3129C19.9919 58.0125 20.2957 55.356 19.8538 52.946C19.7433 52.3709 19.6881 51.7958 19.5776 51.2207C19.5224 50.9469 19.3843 50.673 19.3567 50.3718C19.3015 49.9884 19.3843 49.5776 19.3567 49.1942C19.2739 48.5917 19.1358 48.0166 19.1358 47.4141C19.1358 46.7842 19.3567 46.1817 19.3843 45.5518C19.4672 44.1825 19.5224 42.868 19.8538 41.4987C20.1024 40.5128 20.0747 39.5269 20.2957 38.541C20.4061 38.0481 20.5718 37.5825 20.8756 37.1717C21.2623 36.624 21.8698 36.2406 22.3117 35.7476C23.0021 35.0082 23.803 34.1866 24.1344 33.2281C24.4934 32.1601 24.6591 30.9825 24.8248 29.887C25.0181 28.5999 25.2943 27.3949 25.7086 26.1625C26.1504 24.848 26.8961 23.7526 27.6141 22.575C28.1941 21.5891 28.8569 20.7127 29.713 19.9185C31.37 18.3849 33.4413 17.2895 35.623 16.5774C36.8657 16.1666 38.1361 15.8654 39.4341 15.6737C40.8426 15.482 42.4167 15.3998 43.8252 15.7011C45.0403 15.9749 46.3107 16.3309 47.4982 16.7143C48.8238 17.1251 49.7628 17.8098 50.7294 18.7683C52.5521 20.5484 54.3195 22.5476 55.5623 24.7658C56.1423 25.8065 56.6946 27.0115 56.9155 28.1617C57.026 28.7916 56.8603 29.4215 56.7498 30.0513C56.6394 30.7908 56.5841 31.5302 56.446 32.2696C56.2251 33.4746 55.8937 34.6522 55.728 35.8846C55.6728 36.3501 55.6728 36.8157 55.8385 37.2539C56.0594 37.8016 56.4737 38.3219 56.8051 38.7875C57.5783 39.8829 58.4344 40.951 59.1525 42.0738C59.8429 43.1419 60.6714 44.1004 61.279 45.2232C61.8865 46.3734 62.3008 47.6605 62.7427 48.8655C62.936 49.4132 63.1293 49.961 63.2122 50.5361C63.295 51.029 63.1293 51.6315 63.3502 52.0971C63.8473 53.1925 63.7645 54.4797 63.7645 55.6573C63.7645 57.054 63.4883 58.3685 63.2674 59.7378C63.0741 60.8606 62.9912 62.0108 63.1293 63.1336C63.295 64.2839 63.7645 65.3245 64.2892 66.3652C64.8968 67.5428 65.5596 68.693 66.0567 69.9254C66.5538 71.1577 66.8576 72.4723 67.1061 73.7868C67.6308 76.4159 66.4709 78.9902 65.9186 81.537C65.7805 82.1395 65.7253 82.742 65.5872 83.3445C65.4767 83.9196 65.2558 84.4947 65.1453 85.0698C64.9244 86.2201 65.3663 87.2607 65.6977 88.3562C66.0843 89.6433 66.4709 90.9031 66.8852 92.1628C67.2994 93.4226 67.6861 94.7097 67.7689 96.0516C67.8518 97.3388 67.4375 98.5164 67.2442 99.7761C67.0785 100.844 67.2718 101.857 67.8518 102.816C68.5146 103.911 69.2602 104.952 69.8954 106.075C70.5582 107.253 71.221 108.485 71.7181 109.745C72.16 110.813 72.5466 111.963 72.6019 113.113C72.6295 113.633 72.6295 114.126 72.4362 114.592Z" fill="#82DBED"/>
<path opacity="0.1" d="M62.2732 149.016C60.076 146.57 50.3728 145.603 42.6377 146.113C37.2183 146.471 33.5191 147.764 29.0503 149.071C27.2276 149.592 25.2391 150.304 23.665 151.481C23.4993 151.591 23.5545 151.837 23.7202 151.892C25.4601 152.741 27.3933 152.96 29.2436 153.152C33.9032 153.708 37.6503 154.009 43.065 154C48.5449 153.99 52.5932 153.857 57.1365 153.097C58.7107 152.823 60.6439 152.631 62.0523 151.728C63.1294 151.043 62.984 149.808 62.2732 149.016Z" fill="#05223E"/>
<path d="M31.0671 24.3216C31.0255 24.1493 31.1087 23.977 31.2752 23.8478C31.3168 23.8047 31.3584 23.8047 31.4 23.8047C31.5248 23.7186 31.6913 23.6324 31.8993 23.6755C31.9409 23.6755 31.9826 23.6755 32.0658 23.6755C32.2322 23.6755 32.3987 23.7186 32.5235 23.8478C32.5651 23.8909 32.6067 23.934 32.6483 23.977C32.6899 24.0201 32.6899 24.0201 32.6899 24.0632C32.8148 24.1924 32.898 24.4078 32.9396 24.5801C32.9396 24.6231 32.9812 24.6662 32.9812 24.7523C32.9812 24.7954 32.9812 24.8385 32.9812 24.8816C32.9812 25.0108 32.9396 25.14 32.898 25.2692C32.7315 25.6138 32.357 25.8292 31.9826 25.743C31.6913 25.743 31.4416 25.5277 31.3168 25.2692C31.2752 25.2261 31.2336 25.1831 31.2336 25.14C31.0671 24.8385 31.0255 24.5801 31.0671 24.3216Z" fill="#09366D"/>
<path d="M42.6085 24.5589C42.5079 24.1751 42.206 23.8873 41.8035 23.8394C41.7532 23.8394 41.7029 23.8394 41.6526 23.8394C41.552 23.8394 41.4011 23.8394 41.3004 23.8873C41.0489 23.9833 40.8476 24.1272 40.747 24.367C40.4955 24.7028 40.4451 25.2305 40.6464 25.5663C40.8476 25.9021 41.2501 25.998 41.6023 25.9021C41.7029 25.9021 41.7532 25.9021 41.8539 25.8541C42.1054 25.8061 42.2563 25.6622 42.357 25.4224C42.357 25.3744 42.4073 25.3744 42.4073 25.3264C42.6085 25.1345 42.6588 24.8467 42.6085 24.5589Z" fill="#09366D"/>
<path d="M37.8409 28.8001C37.8907 28.0864 37.9903 27.3726 38.1397 26.6588C38.2891 25.7468 38.0899 24.8348 38.2393 23.9227C38.2891 23.6055 37.6915 23.5659 37.6417 23.8831C37.5421 24.5968 37.6915 25.3106 37.6417 26.0244C37.5919 26.5795 37.4923 27.1347 37.3927 27.6898C37.2931 28.3243 37.2931 28.9191 37.2433 29.5536C37.1935 30.069 36.8947 29.8708 36.3469 29.9501C36.1478 29.9501 35.849 30.069 35.6498 30.0294C35.2016 29.9897 35.4506 29.9897 35.351 29.7122C35.2016 29.157 35.4506 28.4036 35.5004 27.8484C35.6 26.7381 35.5502 25.6278 35.6996 24.4779C35.7494 24.1607 35.1518 24.121 35.102 24.4382C34.9526 25.8658 34.9028 27.2933 34.8032 28.7208C34.7534 29.6329 34.4048 30.6242 35.9486 30.4656C36.3967 30.4259 37.2931 30.5845 37.6417 30.2673C38.0401 29.9897 37.8409 29.157 37.8409 28.8001Z" fill="#09366D"/>
<path fill-rule="evenodd" clip-rule="evenodd" d="M65.1395 46.9159C65.504 46.5779 66.0734 46.5993 66.4114 46.9638C67.729 48.3844 68.45 50.7204 68.6743 52.9343C68.8984 55.1459 68.6561 57.5257 67.7578 59.0755C67.5086 59.5056 66.9579 59.6522 66.5279 59.4029C66.0978 59.1537 65.9513 58.603 66.2005 58.1729C66.8231 57.0987 67.0913 55.1663 66.8835 53.1158C66.676 51.0677 66.0226 49.1915 65.0917 48.1878C64.7537 47.8234 64.7751 47.2539 65.1395 46.9159Z" fill="#09366D"/>
<path fill-rule="evenodd" clip-rule="evenodd" d="M14.4343 85.9042C14.5341 86.3911 14.2202 86.8667 13.7332 86.9664C13.7055 86.9721 13.6764 86.9768 13.6549 86.9799C13.643 87.0081 13.6341 87.0286 13.6269 87.045C13.6132 87.0766 13.6057 87.0938 13.5954 87.124C13.4847 87.4507 13.3768 87.7615 13.2734 88.0595C12.4583 90.4083 11.917 91.9683 12.383 94.326C12.4192 94.509 12.5655 94.9385 12.7669 95.4359C12.9644 95.9236 13.1667 96.3585 13.2759 96.5442C13.3014 96.5876 13.3362 96.6389 13.3938 96.7216C13.3978 96.7273 13.4019 96.7333 13.4062 96.7394C13.456 96.8109 13.5225 96.9063 13.584 97.0059C13.7117 97.2125 13.9001 97.5615 13.9001 98.0005C13.9001 98.4976 13.4972 98.9005 13.0001 98.9005C12.5162 98.9005 12.1215 98.5186 12.1009 98.0397C12.0946 98.0255 12.0807 97.9973 12.0528 97.9521C12.0183 97.8962 11.9785 97.8391 11.9211 97.7566L11.9165 97.75C11.8632 97.6734 11.7899 97.5682 11.7244 97.4568C11.5442 97.1505 11.3013 96.6124 11.0985 96.1115C10.8996 95.6204 10.6905 95.0459 10.6172 94.675C10.0518 91.8146 10.7575 89.7964 11.5727 87.4653C11.6777 87.1649 11.7845 86.8594 11.8907 86.5461C11.9165 86.4702 11.946 86.3987 11.9675 86.3477C11.9764 86.3264 11.984 86.3086 11.9908 86.2926C12.0034 86.2629 12.0133 86.2397 12.0243 86.2124C12.0357 86.1842 12.0424 86.1657 12.0462 86.1542C12.0866 85.7882 12.3208 85.5786 12.4175 85.5043C12.5311 85.417 12.6433 85.3695 12.7039 85.3461C12.8325 85.2965 12.9652 85.2682 13.0496 85.252C13.1441 85.2339 13.236 85.2207 13.3005 85.2118C13.3645 85.2029 13.3829 85.2004 13.3829 85.2007C13.383 85.2009 13.3781 85.2018 13.372 85.2031C13.859 85.1033 14.3346 85.4172 14.4343 85.9042Z" fill="#09366D"/>
<path d="M37.0515 32.4266C36.4987 32.39 35.909 32.39 35.3929 32.5362C34.6189 32.7921 33.8818 33.6692 34.3609 34.4733C34.8769 35.3505 36.3512 35.4602 37.2727 35.3505C37.7527 35.3505 38.58 35.1721 38.7101 34.6561C38.8207 34.4733 38.8576 34.2906 38.8944 34.0347C38.8944 32.6643 38.2197 32.5424 37.0515 32.4266ZM36.5762 33.1056C37.2777 33.1056 38.1677 33.0599 38.2423 33.8049C38.3078 34.4602 37.7162 34.8539 36.6639 34.8539C35.6117 34.8539 35.0419 34.4157 35.0856 33.8049C35.1293 33.1941 35.8748 33.1056 36.5762 33.1056Z" fill="#09366D"/>
<path d="M6.03426 6.21398C5.8131 5.92716 5.49717 5.67222 5.21284 5.48101C4.99169 5.32167 4.64416 5.22606 4.39142 5.03485C4.58098 4.84364 4.9285 4.71617 5.08647 4.49309C5.30762 4.20628 5.46558 3.8876 5.52877 3.53705C5.62355 2.89968 5.27602 2.13485 4.80213 1.72056C4.26505 1.27441 3.50682 0.955723 2.84337 0.764514C1.99036 0.445832 1.20053 0.350228 0.284337 0.318359C0.221151 0.318359 0.189558 0.350228 0.157965 0.382096C0.0947789 0.413964 0.0631859 0.4777 0.0631859 0.541437C0.0631859 0.860119 0 1.1788 0 1.46561C0 1.65682 0.031593 1.8799 0.0631859 2.10298C0.0947789 2.38979 0.0947789 2.67661 0.0947789 2.99529C0 3.76013 0.126372 4.52496 0.126372 5.32167C0.126372 6.18211 0.0947789 6.97881 0.189558 7.80739C0.252744 8.22167 0.284337 8.66783 0.31593 9.11398C0.347523 9.46453 0.31593 9.81508 0.379115 10.1656C0.473894 10.6437 1.04257 10.6118 1.45328 10.6437C2.21151 10.7074 3.06452 10.7074 3.82275 10.6118C5.14965 10.4206 6.287 9.71948 6.60293 8.31728C6.76089 7.52057 6.47656 6.81947 6.03426 6.21398ZM1.83239 3.79199C1.8008 3.76012 1.76921 3.72826 1.76921 3.66452C1.76921 3.37771 1.76921 3.15463 1.83239 2.86782C1.86398 2.70847 1.86398 2.54913 1.92717 2.42166C2.05354 2.10298 2.33788 2.19858 2.59062 2.29419C2.81177 2.38979 3.03292 2.51727 3.25407 2.61287C3.41204 2.70847 3.53841 2.80408 3.6016 2.96342C3.72797 3.2821 3.63319 3.69639 3.38045 3.91947C3.06452 4.17441 2.59062 4.23815 2.17991 4.17441C1.95876 4.11068 1.86398 3.95133 1.83239 3.79199ZM4.29664 8.15794C4.13868 8.44475 4.01231 8.63596 3.66478 8.6997C3.28567 8.76343 2.6854 8.7953 2.30629 8.66783C1.54805 8.44475 2.02195 7.23376 2.08514 6.72387C2.08514 6.692 2.11673 6.66013 2.11673 6.62826C2.11673 6.50079 2.17991 6.37332 2.36947 6.34145C2.6854 6.30958 3.1277 6.46892 3.44363 6.56453C4.07549 6.7876 4.64416 7.4887 4.29664 8.15794Z" fill="#09366D"/>
<path d="M26.9802 8.7638C26.5063 8.7638 26.0009 8.82754 25.4954 8.82754C25.4954 9.01875 25.4638 9.24182 25.4638 9.43303C25.4638 9.84732 25.3374 10.8034 25.8113 10.9308C25.8113 10.9308 25.8113 10.9308 25.8429 10.9308C25.9377 10.8671 26.0324 10.8352 26.1272 10.8034C26.4747 10.7715 26.8223 10.7078 27.1698 10.6759C27.1698 10.0067 27.2646 9.27369 27.3278 8.73193C27.2014 8.7638 27.075 8.7638 26.9802 8.7638Z" fill="#09366D"/>
<path d="M25.5278 6.56485C26.0333 6.56485 26.5388 6.46924 26.9811 6.46924C27.139 6.46924 27.297 6.46924 27.4865 6.46924C27.5181 5.35386 27.5497 4.23847 27.7393 3.12308C27.6761 2.54946 27.6761 2.0077 27.6761 1.46594C27.6761 1.05165 27.8341 0.509891 27.7077 0.0956046C27.6445 0.0318682 27.5813 0 27.4865 0C27.139 0.0637364 26.8547 0.0956046 26.5072 0.127473C26.3808 0.127473 26.286 0.191209 26.1596 0.191209C26.0333 0.191209 25.9069 0.159341 25.7805 0.159341C25.433 0.223077 25.4962 0.637364 25.591 0.956046C25.5594 1.78462 25.4646 2.61319 25.4646 3.47363C25.4646 4.49342 25.4962 5.5132 25.5278 6.56485Z" fill="#09366D"/>
<path d="M13.8694 2.1986C13.585 1.75244 13.2691 1.30629 12.89 0.923872C12.6372 0.700794 12.4161 0.573322 12.1633 0.509585C12.1317 0.445849 12.1001 0.413981 12.037 0.413981C11.9106 0.413981 11.7842 0.382112 11.6894 0.382112C11.6578 0.382112 11.6263 0.382112 11.6263 0.350244C11.5947 0.350244 11.5631 0.350244 11.5631 0.350244C11.2471 0.318376 10.9944 0.286508 10.7101 0.318376C10.3625 0.350244 9.98342 0.477717 9.69908 0.700794C9.03563 1.17882 8.78288 2.23047 8.62492 2.9953C8.40377 3.91948 8.18262 4.9074 8.18262 5.86344C8.18262 6.3096 8.21421 6.75575 8.2774 7.20191C8.37218 7.64806 8.40377 8.12609 8.56173 8.54037C8.87766 9.33708 9.47793 10.1338 10.2678 10.4843C11.026 10.803 11.879 10.6118 12.5109 10.1338C13.2059 9.62389 13.6798 8.79532 13.9641 7.99861C14.3117 7.07443 14.596 6.05465 14.7224 5.06674C14.8487 4.04696 14.4064 3.02717 13.8694 2.1986ZM12.574 7.20191C12.4477 7.45685 12.2897 7.74367 12.0686 7.96674C12.037 8.03048 11.9738 8.09422 11.9422 8.12609C11.8158 8.34916 11.6263 8.5085 11.3735 8.57224C11.0892 8.63598 10.8048 8.47663 10.5837 8.22169C10.3625 8.12608 10.2362 7.93488 10.0782 7.61619C9.88864 7.13817 9.85704 6.62828 9.85704 6.11839C9.85704 5.35355 10.4257 3.28212 10.5837 2.93157C10.7101 2.61289 10.8048 2.13486 11.1524 2.00739C11.4051 1.87992 11.8158 2.00739 12.037 2.1986C13.427 3.21838 13.3007 5.67223 12.574 7.20191Z" fill="#09366D"/>
<path d="M17.0918 8.06295C17.3761 8.44537 17.6604 8.85966 18.008 9.21021C18.2291 9.43328 18.4503 9.52889 18.7346 9.62449C18.7662 9.65636 18.7978 9.7201 18.861 9.7201C18.9873 9.7201 19.0821 9.75197 19.2085 9.78383C19.2401 9.78383 19.2717 9.78383 19.2717 9.8157C19.3033 9.8157 19.3349 9.8157 19.3349 9.8157C19.5876 9.84757 19.8404 9.91131 20.1247 9.91131C20.4722 9.91131 20.8513 9.8157 21.1673 9.65636C21.8623 9.30581 22.1466 8.4135 22.3678 7.80801C22.6205 7.04317 22.9049 6.2146 22.9681 5.41789C22.9997 5.03547 22.9997 4.65305 22.9365 4.27064C22.8733 3.88822 22.8733 3.47393 22.7469 3.12338C22.4942 2.42228 21.9255 1.72118 21.1357 1.37063C20.409 1.05195 19.5244 1.17942 18.861 1.4981C18.1343 1.88052 17.6289 2.54975 17.2813 3.18712C16.9022 3.95195 16.5547 4.8124 16.3651 5.6091C16.2072 6.43767 16.5863 7.32998 17.0918 8.06295ZM18.6714 3.92009C18.7978 3.72888 18.9873 3.47393 19.2401 3.31459C19.3033 3.25085 19.3349 3.21899 19.3981 3.18712C19.556 3.02778 19.714 2.9003 19.9983 2.86844C20.2827 2.83657 20.567 2.99591 20.7881 3.21899C21.0093 3.31459 21.1357 3.47393 21.262 3.76074C21.42 4.17503 21.42 4.62119 21.3884 5.06734C21.3568 5.7047 20.6618 7.42559 20.5038 7.7124C20.3458 7.96735 20.2195 8.34976 19.9035 8.47724C19.6508 8.54097 19.2401 8.4135 19.0189 8.25416C17.5973 7.20251 17.85 5.16295 18.6714 3.92009Z" fill="#09366D"/>
<path d="M11.0365 16.1865C11.7947 19.1503 13.1216 21.6678 14.7328 24.2492C15.4911 25.4283 16.3441 26.5437 17.2603 27.5953C18.0501 28.5195 18.682 29.5712 19.6613 30.2404C20.6723 30.9415 21.6201 29.2843 20.6091 28.5832C19.7877 28.0096 19.0611 26.7986 18.3976 26.0019C17.5446 24.9821 16.7548 23.9305 16.0598 22.7832C14.6381 20.4887 13.5007 18.2898 12.8373 15.6447C12.5529 14.4975 10.7205 15.0074 11.0365 16.1865Z" fill="#09366D"/>
</svg>
