<svg id="Layer_1" enable-background="new 0 0 256 256" height="512" viewBox="0 0 256 256" width="512" xmlns="http://www.w3.org/2000/svg"><path d="m240.06 182.334c-1.364-1.584-2.06-3.637-2.06-5.729v-5.786h-63.333v5.786c0 2.092-.696 4.145-2.06 5.729-5.101 5.925-7.94 13.51-7.94 21.393v35.803c0 .713.054 1.43.212 2.125 1.023 4.518 4.958 7.498 9.319 7.498h32.135 31.899c1.891 0 3.779-.465 5.366-1.492 2.836-1.835 4.401-4.884 4.401-8.039v-35.895c.001-7.883-2.838-15.468-7.939-21.393z" fill="#e0ebfc"/><path d="m147.386 59.233c-.15-3.576-3.093-6.398-6.672-6.398h-60.095-60.095c-3.579 0-6.522 2.822-6.672 6.398l-5.852 139.457v4.73c0 3.688 2.99 6.678 6.678 6.678h65.941 65.941c3.688 0 6.678-2.99 6.678-6.678v-4.73z" fill="#b9befc"/><circle cx="35.823" cy="69.172" fill="#f9cfcf" r="8.264"/><circle cx="125.415" cy="69.172" fill="#f9cfcf" r="8.264"/><g fill="#3762cc"><path d="m146.561 212.098h-131.883c-4.785 0-8.678-3.893-8.678-8.678v-4.729l5.854-139.542c.196-4.662 4.004-8.313 8.67-8.313h120.189c4.666 0 8.474 3.651 8.67 8.313l5.853 139.458.002 4.813c0 4.785-3.892 8.678-8.677 8.678zm-126.037-157.263c-2.515 0-4.568 1.969-4.674 4.481l-5.852 139.458.002 4.646c0 2.579 2.099 4.678 4.678 4.678h131.883c2.579 0 4.678-2.099 4.678-4.678v-4.729l-5.851-139.374c-.106-2.513-2.159-4.481-4.674-4.481h-120.19z"/><path d="m35.823 79.436c-5.659 0-10.263-4.604-10.263-10.264s4.604-10.264 10.263-10.264 10.264 4.604 10.264 10.264-4.605 10.264-10.264 10.264zm0-16.528c-3.454 0-6.263 2.81-6.263 6.264s2.81 6.264 6.263 6.264 6.264-2.81 6.264-6.264-2.81-6.264-6.264-6.264z"/><path d="m125.415 79.436c-5.659 0-10.263-4.604-10.263-10.264s4.604-10.264 10.263-10.264 10.264 4.604 10.264 10.264-4.605 10.264-10.264 10.264zm0-16.528c-3.454 0-6.263 2.81-6.263 6.264s2.81 6.264 6.263 6.264 6.264-2.81 6.264-6.264-2.811-6.264-6.264-6.264z"/></g><path d="m125.415 69.668c-2.535 0-4.591-2.055-4.591-4.591v-20.25c0-15.879-12.918-28.797-28.797-28.797h-22.815c-15.879 0-28.797 12.918-28.797 28.797v20.251c0 2.535-2.055 4.591-4.591 4.591-2.535 0-4.591-2.055-4.591-4.591v-20.251c0-20.942 17.037-37.979 37.979-37.979h22.815c20.942 0 37.979 17.037 37.979 37.979v20.251c0 2.535-2.056 4.59-4.591 4.59z" fill="#e0ebfc"/><path d="m125.415 71.668c-3.634 0-6.591-2.957-6.591-6.591v-20.251c0-14.775-12.021-26.797-26.797-26.797h-22.816c-14.776 0-26.797 12.021-26.797 26.797v20.251c0 3.634-2.957 6.591-6.591 6.591s-6.591-2.957-6.591-6.591v-20.251c0-22.044 17.934-39.979 39.979-39.979h22.815c22.044 0 39.979 17.935 39.979 39.979v20.251c0 3.634-2.956 6.591-6.59 6.591zm-56.204-57.639h22.815c16.982 0 30.797 13.815 30.797 30.797v20.251c0 1.429 1.162 2.591 2.591 2.591s2.591-1.162 2.591-2.591v-20.251c0-19.839-16.14-35.979-35.979-35.979h-22.815c-19.838 0-35.979 16.14-35.979 35.979v20.251c0 1.429 1.162 2.591 2.591 2.591s2.591-1.162 2.591-2.591v-20.251c.001-16.981 13.816-30.797 30.797-30.797z" fill="#3762cc"/><path d="m238.333 170.819h-64c-3.866 0-7-3.134-7-7 0-3.866 3.134-7 7-7h64c3.866 0 7 3.134 7 7 0 3.866-3.134 7-7 7z" fill="#e0ebfc"/><circle cx="192.177" cy="209.842" fill="#eaa97d" r="21.607"/><circle cx="192.177" cy="209.842" fill="#ffea92" r="15.428"/><path d="m192.177 233.449c-13.017 0-23.607-10.59-23.607-23.607s10.59-23.607 23.607-23.607 23.607 10.59 23.607 23.607-10.59 23.607-23.607 23.607zm0-43.215c-10.812 0-19.607 8.796-19.607 19.607s8.796 19.607 19.607 19.607 19.607-8.796 19.607-19.607-8.796-19.607-19.607-19.607z" fill="#3762cc"/><path d="m193.404 197.233 2.881 5.837c.199.404.585.684 1.031.749l6.442.936c1.123.163 1.571 1.543.759 2.335l-4.661 4.544c-.323.314-.47.768-.394 1.212l1.1 6.416c.192 1.118-.982 1.971-1.986 1.443l-5.762-3.029c-.399-.21-.875-.21-1.274 0l-5.762 3.029c-1.004.528-2.178-.325-1.986-1.443l1.1-6.416c.076-.444-.071-.897-.394-1.212l-4.661-4.544c-.812-.792-.364-2.172.759-2.335l6.442-.936c.446-.065.831-.345 1.031-.749l2.881-5.837c.501-1.017 1.952-1.017 2.454 0z" fill="#eaa97d"/><circle cx="219.379" cy="220.864" fill="#eaa97d" r="21.607"/><circle cx="219.379" cy="220.864" fill="#ffea92" r="15.428"/><path d="m219.378 244.471c-13.017 0-23.607-10.59-23.607-23.606 0-13.018 10.59-23.607 23.607-23.607s23.607 10.59 23.607 23.607c.001 13.016-10.589 23.606-23.607 23.606zm0-43.214c-10.812 0-19.607 8.796-19.607 19.607s8.795 19.606 19.607 19.606 19.607-8.796 19.607-19.606c.001-10.811-8.795-19.607-19.607-19.607z" fill="#3762cc"/><path d="m220.606 208.255 2.881 5.837c.199.404.585.684 1.031.749l6.442.936c1.123.163 1.571 1.543.759 2.335l-4.661 4.544c-.323.314-.47.768-.394 1.212l1.1 6.416c.192 1.118-.982 1.971-1.986 1.443l-5.762-3.029c-.399-.21-.875-.21-1.274 0l-5.762 3.029c-1.004.528-2.178-.325-1.986-1.443l1.1-6.416c.076-.444-.071-.897-.394-1.212l-4.661-4.544c-.812-.792-.364-2.172.759-2.335l6.442-.936c.446-.065.831-.345 1.031-.749l2.881-5.837c.501-1.018 1.952-1.018 2.454 0z" fill="#eaa97d"/><circle cx="205.581" cy="143.212" fill="#eaa97d" r="21.607"/><circle cx="205.581" cy="143.212" fill="#ffea92" r="15.428"/><path d="m205.582 166.819c-13.017 0-23.607-10.59-23.607-23.607s10.59-23.607 23.607-23.607 23.607 10.59 23.607 23.607-10.59 23.607-23.607 23.607zm0-43.215c-10.812 0-19.607 8.796-19.607 19.607s8.796 19.607 19.607 19.607 19.607-8.796 19.607-19.607-8.796-19.607-19.607-19.607z" fill="#3762cc"/><path d="m206.809 130.603 2.881 5.837c.199.404.585.684 1.031.749l6.442.936c1.123.163 1.571 1.543.759 2.335l-4.661 4.544c-.323.314-.47.768-.394 1.212l1.1 6.416c.192 1.118-.982 1.971-1.986 1.443l-5.762-3.029c-.399-.21-.875-.21-1.274 0l-5.762 3.029c-1.004.528-2.178-.325-1.986-1.443l1.1-6.416c.076-.444-.071-.897-.394-1.212l-4.661-4.544c-.812-.792-.364-2.172.759-2.335l6.442-.936c.446-.065.831-.345 1.031-.749l2.881-5.837c.501-1.018 1.952-1.018 2.454 0z" fill="#eaa97d"/><path d="m211.774 89.408c-1.759-2.235-4.747-2.897-7.226-1.767l-6.959 3.179c-10.387-12.752-26.124-20.556-43.273-20.556-30.711 0-55.708 24.933-55.815 55.619-.011 3.068 2.228 5.799 5.275 6.156 3.637.426 6.724-2.406 6.724-5.957 0-24.161 19.655-43.817 43.815-43.817 12.359 0 23.787 5.162 31.887 13.757l-5.617 2.566c-1.767.807-3.159 2.348-3.572 4.246-.621 2.851.853 5.634 3.399 6.779l19.545 8.783c.783.352 1.622.527 2.459.527 1.696 0 3.389-.719 4.609-2.15.657-.771 1.058-1.728 1.288-2.714l4.519-19.375c.427-1.829.103-3.801-1.058-5.276z" fill="#6bdddd"/><path d="m238.333 172.819h-64c-4.962 0-9-4.037-9-9s4.038-9 9-9h64c4.962 0 9 4.037 9 9s-4.037 9-9 9zm-64-14c-2.757 0-5 2.243-5 5s2.243 5 5 5h64c2.757 0 5-2.243 5-5s-2.243-5-5-5z" fill="#3762cc"/><path d="m238.233 251.152h-64.035c-5.428 0-10.063-3.724-11.27-9.057-.176-.777-.261-1.617-.261-2.566v-35.803c0-8.326 2.992-16.388 8.425-22.697 1.016-1.18 1.575-2.751 1.575-4.424v-5.786c0-1.104.896-2 2-2h63.333c1.104 0 2 .896 2 2v5.786c0 1.673.56 3.244 1.576 4.423v.001c5.433 6.31 8.424 14.37 8.424 22.697v35.895c0 3.932-1.987 7.565-5.314 9.718-1.833 1.186-4.064 1.813-6.453 1.813zm-61.566-78.333v3.786c0 2.631-.903 5.129-2.544 7.034-4.808 5.584-7.456 12.718-7.456 20.087v35.803c0 .649.053 1.2.163 1.684.792 3.497 3.822 5.939 7.369 5.939h64.035c1.616 0 3.096-.405 4.28-1.171 2.184-1.413 3.487-3.791 3.487-6.36v-35.895c0-7.369-2.648-14.504-7.456-20.088-1.641-1.905-2.544-4.403-2.544-7.033v-3.786z" fill="#3762cc"/></svg>