<svg width="32" height="32" viewBox="0 0 32 32" fill="none" xmlns="http://www.w3.org/2000/svg">
  <path d="M31.8909 9.79175C31.4333 8.87741 30.0605 9.04885 29.2025 8.9917C28.1158 8.9917 26.9718 9.04885 25.885 9.04885C24.741 9.106 23.597 9.04885 22.5103 8.93456C22.2243 8.93456 21.9955 8.87741 21.7095 8.87741C21.5379 8.87741 21.1947 8.93456 21.0803 8.82026C20.9087 8.64882 20.7943 8.13451 20.6799 7.84877C20.2795 6.87728 19.7075 5.96294 19.1927 5.10574C18.6207 4.19139 18.2203 3.2199 17.6483 2.30556C17.1908 1.56265 16.6188 0.534013 15.7608 0.133987C14.7312 -0.323185 14.2736 0.476866 13.8732 1.21977C12.8436 3.16275 11.9285 5.10574 11.0705 7.10587C10.9561 7.3916 10.8417 7.62019 10.7273 7.90592C10.6701 8.02021 10.5557 8.47738 10.4413 8.53453C10.2125 8.64882 9.58329 8.53453 9.3545 8.53453C8.21052 8.47738 7.06654 8.42024 5.97976 8.36309C4.83578 8.30594 3.6918 8.19165 2.49062 8.07736C1.74703 7.96307 0.259857 7.56304 0.0310608 8.70597C-0.140536 9.62032 0.431457 10.4775 0.946248 11.1633C1.57544 12.0205 2.20462 12.9348 2.77661 13.8492C3.4058 14.7635 4.03499 15.6778 4.72138 16.5922C5.29337 17.3351 6.03695 18.0209 6.32295 18.9352C6.66614 19.9067 6.32295 20.9353 5.97976 21.8497C5.63656 22.8212 5.23617 23.7927 4.83578 24.7642C4.43538 25.8499 4.03499 26.8786 3.6346 27.9644C3.463 28.4787 3.23421 29.0501 3.06261 29.5645C3.00541 29.7359 2.94821 29.9073 2.89101 30.0216C2.89101 30.0788 2.77661 30.1359 2.77661 30.1359C2.60502 30.7074 2.83381 31.5646 3.3486 31.8503C3.8062 32.1361 3.97779 31.9646 4.49258 31.736C5.00737 31.5074 5.52216 31.2217 6.03695 30.936C8.03892 29.8502 10.0409 28.7073 12.0428 27.6215C13.0724 27.05 14.0448 26.5357 15.0744 26.0214C15.5892 25.7928 16.104 25.5071 16.6188 25.2785C17.0764 25.107 17.0192 25.0499 17.4196 25.2785C18.3919 25.7356 19.2499 26.4214 20.1651 26.9929C21.0803 27.5643 22.0527 28.0215 23.0251 28.5358C23.9974 28.993 24.9698 29.5073 25.9994 30.0216C26.5142 30.2502 26.9718 30.536 27.4866 30.7645C27.9442 30.9931 28.3446 31.2789 28.8594 31.1074C29.3169 30.9931 29.6601 30.6502 29.7173 30.1931C29.7745 29.6788 29.4313 29.1644 29.2025 28.7073C28.6878 27.6786 28.173 26.65 27.6582 25.6214C26.743 23.6784 25.8278 21.6782 24.9698 19.6781C24.5694 18.7638 24.169 17.7923 23.8258 16.8208C23.7114 16.4779 23.883 16.4208 24.2262 16.1922C24.6266 15.8493 25.0842 15.5636 25.4846 15.2778C26.3426 14.7064 27.2006 14.1349 28.0586 13.6206C28.9165 13.0491 29.7745 12.5919 30.5753 11.9633C31.2617 11.5633 32.3485 10.7061 31.8909 9.79175Z" fill="#F7BF31"/>
</svg>
